<mxfile host="app.diagrams.net" modified="2024-06-23T17:24:11.559Z" agent="Mozilla/5.0 (Windows NT 10.0; Win64; x64) AppleWebKit/537.36 (KHTML, like Gecko) Chrome/126.0.0.0 Safari/537.36" etag="bw3cDF10mF3gQQ2q2Z2B" version="24.6.2" type="github">
  <diagram id="R2lEEEUBdFMjLlhIrx00" name="Page-1">
    <mxGraphModel dx="836" dy="519" grid="0" gridSize="10" guides="1" tooltips="1" connect="1" arrows="1" fold="1" page="1" pageScale="1" pageWidth="850" pageHeight="1100" math="0" shadow="0" extFonts="Permanent Marker^https://fonts.googleapis.com/css?family=Permanent+Marker">
      <root>
        <mxCell id="0" />
        <mxCell id="1" parent="0" />
        <mxCell id="1Ee7nYXtvGi8WMLVQKju-13" style="edgeStyle=orthogonalEdgeStyle;rounded=0;orthogonalLoop=1;jettySize=auto;html=1;entryX=0.5;entryY=0;entryDx=0;entryDy=0;strokeWidth=3;shadow=1;fillColor=#d5e8d4;strokeColor=#82b366;" edge="1" parent="1" source="1Ee7nYXtvGi8WMLVQKju-2" target="1Ee7nYXtvGi8WMLVQKju-4">
          <mxGeometry relative="1" as="geometry" />
        </mxCell>
        <mxCell id="1Ee7nYXtvGi8WMLVQKju-2" value="Customer&amp;nbsp;" style="rounded=1;arcSize=10;whiteSpace=wrap;html=1;align=center;strokeWidth=3;shadow=1;fillColor=#f5f5f5;fontColor=#333333;strokeColor=#666666;" vertex="1" parent="1">
          <mxGeometry x="200" y="200" width="120" height="40" as="geometry" />
        </mxCell>
        <mxCell id="1Ee7nYXtvGi8WMLVQKju-18" style="edgeStyle=orthogonalEdgeStyle;rounded=0;orthogonalLoop=1;jettySize=auto;html=1;entryX=0.5;entryY=0;entryDx=0;entryDy=0;strokeWidth=3;shadow=1;fillColor=#d5e8d4;strokeColor=#82b366;" edge="1" parent="1" source="1Ee7nYXtvGi8WMLVQKju-3" target="1Ee7nYXtvGi8WMLVQKju-10">
          <mxGeometry relative="1" as="geometry" />
        </mxCell>
        <mxCell id="1Ee7nYXtvGi8WMLVQKju-3" value="Add to Cart" style="rounded=1;arcSize=10;whiteSpace=wrap;html=1;align=center;strokeWidth=3;shadow=1;fillColor=#f8cecc;strokeColor=#b85450;" vertex="1" parent="1">
          <mxGeometry x="200" y="360" width="120" height="40" as="geometry" />
        </mxCell>
        <mxCell id="1Ee7nYXtvGi8WMLVQKju-15" style="edgeStyle=orthogonalEdgeStyle;rounded=0;orthogonalLoop=1;jettySize=auto;html=1;exitX=0.5;exitY=1;exitDx=0;exitDy=0;entryX=0.5;entryY=0;entryDx=0;entryDy=0;strokeWidth=3;shadow=1;fillColor=#d5e8d4;strokeColor=#82b366;" edge="1" parent="1" source="1Ee7nYXtvGi8WMLVQKju-4" target="1Ee7nYXtvGi8WMLVQKju-3">
          <mxGeometry relative="1" as="geometry" />
        </mxCell>
        <mxCell id="1Ee7nYXtvGi8WMLVQKju-4" value="Browse Products" style="rounded=1;arcSize=10;whiteSpace=wrap;html=1;align=center;strokeWidth=3;shadow=1;fillColor=#d5e8d4;strokeColor=#82b366;" vertex="1" parent="1">
          <mxGeometry x="200" y="280" width="120" height="40" as="geometry" />
        </mxCell>
        <mxCell id="1Ee7nYXtvGi8WMLVQKju-21" style="edgeStyle=orthogonalEdgeStyle;rounded=0;orthogonalLoop=1;jettySize=auto;html=1;entryX=0.5;entryY=0;entryDx=0;entryDy=0;strokeWidth=3;shadow=1;fillColor=#d5e8d4;strokeColor=#82b366;" edge="1" parent="1" source="1Ee7nYXtvGi8WMLVQKju-5" target="1Ee7nYXtvGi8WMLVQKju-12">
          <mxGeometry relative="1" as="geometry" />
        </mxCell>
        <mxCell id="1Ee7nYXtvGi8WMLVQKju-5" value="View Sales Report&amp;nbsp;" style="rounded=1;arcSize=10;whiteSpace=wrap;html=1;align=center;strokeWidth=3;shadow=1;fillColor=#1ba1e2;strokeColor=#006EAF;fontColor=#ffffff;" vertex="1" parent="1">
          <mxGeometry x="480" y="440" width="120" height="40" as="geometry" />
        </mxCell>
        <mxCell id="1Ee7nYXtvGi8WMLVQKju-19" style="edgeStyle=orthogonalEdgeStyle;rounded=0;orthogonalLoop=1;jettySize=auto;html=1;entryX=0.5;entryY=0;entryDx=0;entryDy=0;strokeWidth=3;shadow=1;fillColor=#d5e8d4;strokeColor=#82b366;" edge="1" parent="1" source="1Ee7nYXtvGi8WMLVQKju-6" target="1Ee7nYXtvGi8WMLVQKju-5">
          <mxGeometry relative="1" as="geometry" />
        </mxCell>
        <mxCell id="1Ee7nYXtvGi8WMLVQKju-26" style="edgeStyle=orthogonalEdgeStyle;rounded=0;orthogonalLoop=1;jettySize=auto;html=1;entryX=1;entryY=0.5;entryDx=0;entryDy=0;strokeWidth=3;shadow=1;fillColor=#d5e8d4;strokeColor=#82b366;" edge="1" parent="1">
          <mxGeometry relative="1" as="geometry">
            <mxPoint x="479" y="380" as="sourcePoint" />
            <mxPoint x="318.9999999999998" y="380" as="targetPoint" />
          </mxGeometry>
        </mxCell>
        <mxCell id="1Ee7nYXtvGi8WMLVQKju-30" value="Product Data" style="edgeLabel;html=1;align=center;verticalAlign=middle;resizable=0;points=[];fontStyle=1;fontSize=13;" vertex="1" connectable="0" parent="1Ee7nYXtvGi8WMLVQKju-26">
          <mxGeometry x="-0.186" y="3" relative="1" as="geometry">
            <mxPoint x="-14" y="-3" as="offset" />
          </mxGeometry>
        </mxCell>
        <mxCell id="1Ee7nYXtvGi8WMLVQKju-6" value="Process Orders" style="rounded=1;arcSize=10;whiteSpace=wrap;html=1;align=center;strokeWidth=3;shadow=1;fillColor=#e1d5e7;strokeColor=#9673a6;" vertex="1" parent="1">
          <mxGeometry x="480" y="360" width="120" height="40" as="geometry" />
        </mxCell>
        <mxCell id="1Ee7nYXtvGi8WMLVQKju-17" style="edgeStyle=orthogonalEdgeStyle;rounded=0;orthogonalLoop=1;jettySize=auto;html=1;exitX=0.5;exitY=1;exitDx=0;exitDy=0;strokeWidth=3;shadow=1;fillColor=#d5e8d4;strokeColor=#82b366;" edge="1" parent="1" source="1Ee7nYXtvGi8WMLVQKju-7">
          <mxGeometry relative="1" as="geometry">
            <mxPoint x="537" y="320" as="targetPoint" />
          </mxGeometry>
        </mxCell>
        <mxCell id="1Ee7nYXtvGi8WMLVQKju-27" style="edgeStyle=orthogonalEdgeStyle;rounded=0;orthogonalLoop=1;jettySize=auto;html=1;exitX=0;exitY=0.5;exitDx=0;exitDy=0;strokeWidth=3;shadow=1;fillColor=#d5e8d4;strokeColor=#82b366;" edge="1" parent="1" source="1Ee7nYXtvGi8WMLVQKju-7" target="1Ee7nYXtvGi8WMLVQKju-4">
          <mxGeometry relative="1" as="geometry" />
        </mxCell>
        <mxCell id="1Ee7nYXtvGi8WMLVQKju-32" value="Product Data" style="edgeLabel;html=1;align=center;verticalAlign=middle;resizable=0;points=[];fontStyle=1;fontSize=13;" vertex="1" connectable="0" parent="1Ee7nYXtvGi8WMLVQKju-27">
          <mxGeometry x="-0.0205" relative="1" as="geometry">
            <mxPoint as="offset" />
          </mxGeometry>
        </mxCell>
        <mxCell id="1Ee7nYXtvGi8WMLVQKju-7" value="Manage Products" style="rounded=1;arcSize=10;whiteSpace=wrap;html=1;align=center;strokeWidth=3;shadow=1;fillColor=#ffe6cc;strokeColor=#d79b00;" vertex="1" parent="1">
          <mxGeometry x="475" y="280" width="125" height="40" as="geometry" />
        </mxCell>
        <mxCell id="1Ee7nYXtvGi8WMLVQKju-14" style="edgeStyle=orthogonalEdgeStyle;rounded=0;orthogonalLoop=1;jettySize=auto;html=1;entryX=0.5;entryY=0;entryDx=0;entryDy=0;strokeWidth=3;shadow=1;fillColor=#d5e8d4;strokeColor=#82b366;" edge="1" parent="1" source="1Ee7nYXtvGi8WMLVQKju-8" target="1Ee7nYXtvGi8WMLVQKju-7">
          <mxGeometry relative="1" as="geometry" />
        </mxCell>
        <mxCell id="1Ee7nYXtvGi8WMLVQKju-8" value="Admin" style="rounded=1;arcSize=10;whiteSpace=wrap;html=1;align=center;strokeWidth=3;shadow=1;fillColor=#dae8fc;strokeColor=#6c8ebf;" vertex="1" parent="1">
          <mxGeometry x="475" y="200" width="125" height="40" as="geometry" />
        </mxCell>
        <mxCell id="1Ee7nYXtvGi8WMLVQKju-22" style="edgeStyle=orthogonalEdgeStyle;rounded=0;orthogonalLoop=1;jettySize=auto;html=1;entryX=0;entryY=0.5;entryDx=0;entryDy=0;startArrow=classic;startFill=1;strokeWidth=3;shadow=1;fillColor=#d5e8d4;strokeColor=#82b366;" edge="1" parent="1" source="1Ee7nYXtvGi8WMLVQKju-9" target="1Ee7nYXtvGi8WMLVQKju-12">
          <mxGeometry relative="1" as="geometry" />
        </mxCell>
        <mxCell id="1Ee7nYXtvGi8WMLVQKju-29" value="&lt;b style=&quot;font-size: 13px;&quot;&gt;&lt;font style=&quot;font-size: 13px;&quot;&gt;User Data&lt;/font&gt;&lt;/b&gt;" style="edgeLabel;html=1;align=center;verticalAlign=middle;resizable=0;points=[];fontSize=13;" vertex="1" connectable="0" parent="1Ee7nYXtvGi8WMLVQKju-22">
          <mxGeometry x="0.0149" y="2" relative="1" as="geometry">
            <mxPoint x="-1" y="2" as="offset" />
          </mxGeometry>
        </mxCell>
        <mxCell id="1Ee7nYXtvGi8WMLVQKju-9" value="User Authentication&amp;nbsp;" style="rounded=1;arcSize=10;whiteSpace=wrap;html=1;align=center;strokeWidth=3;shadow=1;fillColor=#f0a30a;strokeColor=#BD7000;fontColor=#000000;" vertex="1" parent="1">
          <mxGeometry x="200" y="520" width="120" height="40" as="geometry" />
        </mxCell>
        <mxCell id="1Ee7nYXtvGi8WMLVQKju-20" style="edgeStyle=orthogonalEdgeStyle;rounded=0;orthogonalLoop=1;jettySize=auto;html=1;entryX=0.5;entryY=0;entryDx=0;entryDy=0;strokeWidth=3;shadow=1;fillColor=#d5e8d4;strokeColor=#82b366;" edge="1" parent="1" source="1Ee7nYXtvGi8WMLVQKju-10" target="1Ee7nYXtvGi8WMLVQKju-9">
          <mxGeometry relative="1" as="geometry" />
        </mxCell>
        <mxCell id="1Ee7nYXtvGi8WMLVQKju-24" style="edgeStyle=orthogonalEdgeStyle;rounded=0;orthogonalLoop=1;jettySize=auto;html=1;exitX=1;exitY=0.5;exitDx=0;exitDy=0;entryX=0;entryY=0.5;entryDx=0;entryDy=0;startArrow=classic;startFill=1;strokeWidth=3;shadow=1;fillColor=#d5e8d4;strokeColor=#82b366;" edge="1" parent="1" source="1Ee7nYXtvGi8WMLVQKju-10" target="1Ee7nYXtvGi8WMLVQKju-5">
          <mxGeometry relative="1" as="geometry" />
        </mxCell>
        <mxCell id="1Ee7nYXtvGi8WMLVQKju-28" value="Payment Data" style="edgeLabel;html=1;align=center;verticalAlign=middle;resizable=0;points=[];fontStyle=1;fontSize=13;" vertex="1" connectable="0" parent="1Ee7nYXtvGi8WMLVQKju-24">
          <mxGeometry x="-0.5246" y="-2" relative="1" as="geometry">
            <mxPoint x="42" y="-2" as="offset" />
          </mxGeometry>
        </mxCell>
        <mxCell id="1Ee7nYXtvGi8WMLVQKju-10" value="Checkout Cart" style="rounded=1;arcSize=10;whiteSpace=wrap;html=1;align=center;strokeWidth=3;shadow=1;fillColor=#60a917;strokeColor=#2D7600;fontColor=#ffffff;" vertex="1" parent="1">
          <mxGeometry x="200" y="440" width="120" height="40" as="geometry" />
        </mxCell>
        <mxCell id="1Ee7nYXtvGi8WMLVQKju-12" value="User Authentication" style="rounded=1;arcSize=10;whiteSpace=wrap;html=1;align=center;strokeWidth=3;shadow=1;fillColor=#a0522d;strokeColor=#6D1F00;fontColor=#ffffff;" vertex="1" parent="1">
          <mxGeometry x="480" y="520" width="120" height="40" as="geometry" />
        </mxCell>
        <mxCell id="1Ee7nYXtvGi8WMLVQKju-35" value="&lt;h1&gt;Level 1 Data Flow Diagram&lt;/h1&gt;" style="text;html=1;align=center;verticalAlign=middle;resizable=0;points=[];autosize=1;strokeColor=none;fillColor=none;strokeWidth=3;fontStyle=1;fontSize=17;" vertex="1" parent="1">
          <mxGeometry x="190" y="100" width="450" height="100" as="geometry" />
        </mxCell>
      </root>
    </mxGraphModel>
  </diagram>
</mxfile>
